o 
v 200 0 0
v 173.205078125 100 0
v 0 0 0
v 173.205078125 100 0
v 100 173.205078125 0
v 0 0 0
v 100 173.205078125 0
v 1.2246467572939613e-14 200 0
v 0 0 0
v 1.2246467572939613e-14 200 0
v -100 173.205078125 0
v 0 0 0
v -100 173.205078125 0
v -173.205078125 100 0
v 0 0 0
v -173.205078125 100 0
v -200 2.4492935145879226e-14 0
v 0 0 0
v -200 2.4492935145879226e-14 0
v -173.205078125 -100 0
v 0 0 0
v -173.205078125 -100 0
v -100 -173.205078125 0
v 0 0 0
v -100 -173.205078125 0
v -3.6739403565851786e-14 -200 0
v 0 0 0
v -3.6739403565851786e-14 -200 0
v 100 -173.205078125 0
v 0 0 0
v 100 -173.205078125 0
v 173.205078125 -100 0
v 0 0 0
v 173.205078125 -100 0
v 200 0 0
v 0 0 0
vt 1 0.5
vt 0.9330127239227295 0.75
vt 0.5 0.5
vt 0.9330127239227295 0.75
vt 0.75 0.9330127239227295
vt 0.5 0.5
vt 0.75 0.9330127239227295
vt 0.5 1
vt 0.5 0.5
vt 0.5 1
vt 0.25 0.9330127239227295
vt 0.5 0.5
vt 0.25 0.9330127239227295
vt 0.0669872984290123 0.75
vt 0.5 0.5
vt 0.0669872984290123 0.75
vt 0 0.5
vt 0.5 0.5
vt 0 0.5
vt 0.0669872984290123 0.25
vt 0.5 0.5
vt 0.0669872984290123 0.25
vt 0.25 0.0669872984290123
vt 0.5 0.5
vt 0.25 0.0669872984290123
vt 0.5 0
vt 0.5 0.5
vt 0.5 0
vt 0.75 0.0669872984290123
vt 0.5 0.5
vt 0.75 0.0669872984290123
vt 0.9330127239227295 0.25
vt 0.5 0.5
vt 0.9330127239227295 0.25
vt 1 0.5
vt 0.5 0.5
vn 0 0 1
vn 0 0 1
vn 0 0 1
vn 0 0 1
vn 0 0 1
vn 0 0 1
vn 0 0 1
vn 0 0 1
vn 0 0 1
vn 0 0 1
vn 0 0 1
vn 0 0 1
vn 0 0 1
vn 0 0 1
vn 0 0 1
vn 0 0 1
vn 0 0 1
vn 0 0 1
vn 0 0 1
vn 0 0 1
vn 0 0 1
vn 0 0 1
vn 0 0 1
vn 0 0 1
vn 0 0 1
vn 0 0 1
vn 0 0 1
vn 0 0 1
vn 0 0 1
vn 0 0 1
vn 0 0 1
vn 0 0 1
vn 0 0 1
vn 0 0 1
vn 0 0 1
vn 0 0 1
f 1/1/1 2/2/2 3/3/3
f 4/4/4 5/5/5 6/6/6
f 7/7/7 8/8/8 9/9/9
f 10/10/10 11/11/11 12/12/12
f 13/13/13 14/14/14 15/15/15
f 16/16/16 17/17/17 18/18/18
f 19/19/19 20/20/20 21/21/21
f 22/22/22 23/23/23 24/24/24
f 25/25/25 26/26/26 27/27/27
f 28/28/28 29/29/29 30/30/30
f 31/31/31 32/32/32 33/33/33
f 34/34/34 35/35/35 36/36/36
o 
v 0 0 0
v 1000 0 0
v 0 0 0
v 0 1000 0
v 0 0 0
v 0 0 1000
l 37 38
l 39 40
l 41 42
o 
v -25 0 -25
v 25 0 -25
v -25 0 -25
v -25 0 25
v -25 0 -20
v 25 0 -20
v -20 0 -25
v -20 0 25
v -25 0 -15
v 25 0 -15
v -15 0 -25
v -15 0 25
v -25 0 -10
v 25 0 -10
v -10 0 -25
v -10 0 25
v -25 0 -5
v 25 0 -5
v -5 0 -25
v -5 0 25
v -25 0 0
v 25 0 0
v 0 0 -25
v 0 0 25
v -25 0 5
v 25 0 5
v 5 0 -25
v 5 0 25
v -25 0 10
v 25 0 10
v 10 0 -25
v 10 0 25
v -25 0 15
v 25 0 15
v 15 0 -25
v 15 0 25
v -25 0 20
v 25 0 20
v 20 0 -25
v 20 0 25
v -25 0 25
v 25 0 25
v 25 0 -25
v 25 0 25
l 43 44
l 45 46
l 47 48
l 49 50
l 51 52
l 53 54
l 55 56
l 57 58
l 59 60
l 61 62
l 63 64
l 65 66
l 67 68
l 69 70
l 71 72
l 73 74
l 75 76
l 77 78
l 79 80
l 81 82
l 83 84
l 85 86
